<svg xmlns="http://www.w3.org/2000/svg" width="9.921" height="8.476" viewBox="4.989 8.524 9.921 8.476" enable-background="new 4.989 8.524 9.921 8.476"><title>Celsius</title><desc>Created with Sketch.</desc><g fill="#12202f"><path d="M13.878 10.52h1.032c-.233-1.14-1.24-1.996-2.442-1.996-1.377 0-2.493 1.117-2.493 2.498v3.48c0 1.38 1.12 2.498 2.493 2.498 1.205 0 2.21-.855 2.442-1.994h-1.03c-.207.58-.76.997-1.412.997-.824 0-1.496-.67-1.496-1.495v-3.49c0-.827.67-1.496 1.496-1.496.65 0 1.205.416 1.41.997z"/><path d="M8.48 10.27c0-.965-.782-1.746-1.746-1.746s-1.745.78-1.745 1.745.78 1.744 1.744 1.744c.963 0 1.745-.782 1.745-1.745zm-2.494 0c0-.413.334-.748.748-.748.413 0 .748.335.748.747s-.334.747-.748.747-.748-.335-.748-.748z"/></g></svg>
