<?xml version="1.0" encoding="utf-8"?>
<!-- Generator: Adobe Illustrator 16.0.4, SVG Export Plug-In . SVG Version: 6.00 Build 0)  -->
<!DOCTYPE svg PUBLIC "-//W3C//DTD SVG 1.1//EN" "http://www.w3.org/Graphics/SVG/1.1/DTD/svg11.dtd">
<svg version="1.1" id="Layer_1" xmlns:sketch="http://www.bohemiancoding.com/sketch/ns"
	 xmlns="http://www.w3.org/2000/svg" xmlns:xlink="http://www.w3.org/1999/xlink" x="0px" y="0px" width="9.921px" height="8.476px"
	 viewBox="4.989 8.524 9.921 8.476" enable-background="new 4.989 8.524 9.921 8.476" xml:space="preserve">
<title>Celsius</title>
<desc>Created with Sketch.</desc>
<g id="Page-1" sketch:type="MSPage">
	<g id="Weather" transform="translate(-526.000000, -250.000000)" sketch:type="MSArtboardGroup">

			<g id="_x38_-_x2B_-Celsius-_x2B_--12-_x2B_-Celsius-2-_x2B_-Temperatur" transform="translate(470.000000, 242.000000)" sketch:type="MSLayerGroup">
			<g id="_x38_-_x2B_-Celsius-_x2B_--12-_x2B_-Celsius-2" transform="translate(30.000000, 0.000000)" sketch:type="MSShapeGroup">
				<g id="_x38_-_x2B_-Celsius">
					<g id="Celsius" transform="translate(26.000000, 8.000000)">
						<path id="Rectangle-100" fill="#12202f" d="M13.878,10.519h1.032c-0.233-1.139-1.24-1.995-2.442-1.995
							c-1.377,0-2.493,1.117-2.493,2.498v3.481c0,1.379,1.119,2.497,2.493,2.497c1.205,0,2.21-0.855,2.442-1.994l0,0h-1.031
							c-0.206,0.581-0.76,0.997-1.411,0.997c-0.824,0-1.496-0.67-1.496-1.495v-3.491c0-0.826,0.67-1.495,1.496-1.495
							C13.117,9.521,13.673,9.938,13.878,10.519z"/>
						<path id="Oval-45" fill="#12202f" d="M8.479,10.269c0-0.964-0.781-1.745-1.745-1.745c-0.964,0-1.745,0.781-1.745,1.745
							s0.781,1.745,1.745,1.745C7.697,12.014,8.479,11.232,8.479,10.269z M5.986,10.269c0-0.412,0.334-0.747,0.748-0.747
							c0.413,0,0.748,0.335,0.748,0.747c0,0.413-0.334,0.748-0.748,0.748C6.32,11.017,5.986,10.682,5.986,10.269z"/>
					</g>
				</g>
			</g>
		</g>
	</g>
</g>
</svg>
