<?xml version="1.0" encoding="utf-8"?>
<!-- Generator: Adobe Illustrator 16.0.4, SVG Export Plug-In . SVG Version: 6.00 Build 0)  -->
<!DOCTYPE svg PUBLIC "-//W3C//DTD SVG 1.1//EN" "http://www.w3.org/Graphics/SVG/1.1/DTD/svg11.dtd">
<svg version="1.1" id="Layer_1" xmlns:sketch="http://www.bohemiancoding.com/sketch/ns"
	 xmlns="http://www.w3.org/2000/svg" xmlns:xlink="http://www.w3.org/1999/xlink" x="0px" y="0px" width="78px" height="64px"
	 viewBox="0 0 78 64" enable-background="new 0 0 78 64" xml:space="preserve">
<circle fill="#12202f" stroke="#12202f" stroke-width="2" stroke-miterlimit="10" cx="39" cy="32.292" r="14.053"/>
<g>
	<defs>
		<path id="SVGID_1_" d="M25.636,9.171c-0.673,0.388-0.905,1.244-0.515,1.92l2.108,3.652c0.388,0.671,1.243,0.904,1.92,0.514
			c0.672-0.387,0.905-1.242,0.515-1.919l-2.109-3.652C27.167,9.014,26.312,8.782,25.636,9.171z M15.852,18.955
			c-0.388,0.673-0.163,1.529,0.514,1.92l3.652,2.108c0.672,0.388,1.528,0.163,1.919-0.515c0.388-0.671,0.163-1.529-0.514-1.919
			l-3.652-2.109C17.099,18.054,16.242,18.279,15.852,18.955z M12.271,32.321c0,0.775,0.624,1.404,1.405,1.404h4.216
			c0.776,0,1.405-0.623,1.405-1.404c0-0.777-0.624-1.406-1.405-1.406h-4.216C12.899,30.916,12.271,31.539,12.271,32.321z
			 M15.852,45.685c0.388,0.673,1.243,0.906,1.919,0.517l3.652-2.108c0.672-0.39,0.904-1.243,0.514-1.921
			c-0.388-0.673-1.243-0.906-1.919-0.514l-3.652,2.107C15.694,44.153,15.46,45.01,15.852,45.685z M25.636,55.47
			c0.672,0.388,1.529,0.162,1.919-0.516l2.109-3.65c0.388-0.673,0.162-1.529-0.515-1.919c-0.672-0.39-1.529-0.165-1.92,0.514
			l-2.108,3.65C24.733,54.221,24.958,55.077,25.636,55.47z M39,59.049c0.776,0,1.405-0.623,1.405-1.402v-4.219
			c0-0.773-0.623-1.405-1.405-1.405c-0.776,0-1.405,0.626-1.405,1.405v4.219C37.595,58.421,38.219,59.049,39,59.049z M52.364,55.47
			c0.673-0.39,0.906-1.243,0.517-1.921l-2.108-3.65c-0.39-0.673-1.243-0.906-1.921-0.514c-0.672,0.387-0.905,1.24-0.514,1.919
			l2.107,3.65C50.833,55.626,51.689,55.859,52.364,55.47z M62.149,45.685c0.388-0.673,0.162-1.528-0.515-1.919l-3.652-2.107
			c-0.672-0.39-1.528-0.162-1.918,0.514c-0.39,0.672-0.163,1.528,0.514,1.921l3.651,2.108C60.9,46.588,61.759,46.362,62.149,45.685z
			 M65.73,32.321c0-0.777-0.625-1.406-1.405-1.406h-4.218c-0.774,0-1.404,0.623-1.404,1.406c0,0.775,0.625,1.404,1.404,1.404h4.218
			C65.101,33.726,65.73,33.103,65.73,32.321z M62.149,18.955c-0.389-0.671-1.243-0.904-1.92-0.515l-3.651,2.109
			c-0.673,0.387-0.906,1.242-0.514,1.919c0.387,0.672,1.242,0.906,1.918,0.515l3.652-2.108
			C62.306,20.487,62.539,19.633,62.149,18.955z M52.364,9.171c-0.671-0.387-1.528-0.162-1.919,0.515l-2.107,3.652
			c-0.389,0.671-0.162,1.529,0.514,1.919c0.672,0.388,1.528,0.163,1.921-0.514l2.108-3.652C53.268,10.419,53.042,9.562,52.364,9.171
			z M39,5.591c-0.776,0-1.405,0.623-1.405,1.405v4.216c0,0.777,0.625,1.406,1.405,1.406c0.776,0,1.405-0.624,1.405-1.406V6.996
			C40.405,6.219,39.782,5.591,39,5.591z"/>
	</defs>
	<use xlink:href="#SVGID_1_"  overflow="visible" fill-rule="evenodd" clip-rule="evenodd" fill="#12202f"/>
	<clipPath id="SVGID_2_">
		<use xlink:href="#SVGID_1_"  overflow="visible"/>
	</clipPath>

		<rect x="5.244" y="-1.436" clip-path="url(#SVGID_2_)" fill-rule="evenodd" clip-rule="evenodd" fill="#12202f" width="67.513" height="67.512"/>
</g>
</svg>
