<?xml version="1.0" encoding="UTF-8" standalone="no"?>
<svg width="7px" height="7px" viewBox="0 0 7 7" version="1.1" xmlns="http://www.w3.org/2000/svg" xmlns:xlink="http://www.w3.org/1999/xlink" xmlns:sketch="http://www.bohemiancoding.com/sketch/ns">
    <!-- Generator: Sketch 3.1.1 (8761) - http://www.bohemiancoding.com/sketch -->
    <title>Oval 46</title>
    <desc>Created with Sketch.</desc>
    <defs></defs>
    <g id="Page-1" stroke="none" stroke-width="1" fill="none" fill-rule="evenodd" sketch:type="MSPage">
        <g id="Weather" sketch:type="MSArtboardGroup" transform="translate(-1159.000000, -250.000000)" fill="#12202f">
            <g id="8,3-+-m/s-3-+-Vindretning" sketch:type="MSLayerGroup" transform="translate(1088.000000, 242.000000)">
                <g id="8,3-+-m/s-3" transform="translate(27.000000, 0.000000)" sketch:type="MSShapeGroup">
                    <path d="M51,11.5 C51,9.56700328 49.4329967,8 47.5,8 C45.5670033,8 44,9.56700328 44,11.5 C44,13.4329967 45.5670033,15 47.5,15 C49.4329967,15 51,13.4329967 51,11.5 Z M46,11.5 C46,10.6715728 46.6715728,10 47.5,10 C48.3284272,10 49,10.6715728 49,11.5 C49,12.3284272 48.3284272,13 47.5,13 C46.6715728,13 46,12.3284272 46,11.5 Z" id="Oval-46"></path>
                </g>
            </g>
        </g>
    </g>
</svg>
