<?xml version="1.0" encoding="utf-8"?>
<!-- Generator: Adobe Illustrator 16.0.4, SVG Export Plug-In . SVG Version: 6.00 Build 0)  -->
<!DOCTYPE svg PUBLIC "-//W3C//DTD SVG 1.1//EN" "http://www.w3.org/Graphics/SVG/1.1/DTD/svg11.dtd">
<svg version="1.1" id="Layer_1" xmlns:sketch="http://www.bohemiancoding.com/sketch/ns"
	 xmlns="http://www.w3.org/2000/svg" xmlns:xlink="http://www.w3.org/1999/xlink" x="0px" y="0px" width="78px" height="64px"
	 viewBox="0 0 78 64" enable-background="new 0 0 78 64" xml:space="preserve">
<title>Drops_2</title>
<desc>Created with Sketch.</desc>
<g id="Page-1" sketch:type="MSPage">
	<g id="Weather" transform="translate(-291.000000, -246.000000)" sketch:type="MSArtboardGroup">
		<g id="Rainy-_x2B_-Moderat-Regn" transform="translate(265.000000, 246.000000)" sketch:type="MSLayerGroup">
			<g id="Rainy" transform="translate(26.000000, 0.000000)" sketch:type="MSShapeGroup">
				<path id="Drops_2" fill="#12202f" d="M66.713,37.154C65.007,26.18,55.672,18.216,44.512,18.216
					c-8.564,0-16.267,4.744-20.103,12.38l-0.155,0.307c-0.583-0.091-1.179-0.138-1.786-0.138c-4.364,0-8.315,2.48-10.236,6.298
					C5.419,37.471,0,43.127,0,50.019C0,57.176,5.841,63,13.021,63h51.958C72.158,63,78,57.176,78,50.019
					C78,43.447,73.076,38.001,66.713,37.154L66.713,37.154L66.713,37.154z M64.979,61H13.021C6.935,61,2,56.084,2,50.019
					C2,43.955,6.935,39.04,13.021,39.04c0.179,0,0.357,0.003,0.533,0.012c1.294-3.662,4.796-6.287,8.914-6.287
					c4.655,0,8.525,3.355,9.304,7.771c0.094-0.484,0.143-0.984,0.143-1.495c0-3.589-2.418-6.614-5.719-7.546
					c3.359-6.687,10.299-11.278,18.316-11.278c10.233,0,18.713,7.484,20.227,17.257c-5.975,0.127-10.78,4.993-10.78,10.979h0.11
					c0.765-5.322,5.357-9.411,10.91-9.411C71.064,39.04,76,43.955,76,50.019C76,56.084,71.064,61,64.979,61L64.979,61L64.979,61z"/>
			</g>
		</g>
	</g>
</g>
<rect x="-151.185" y="-105.18" fill-rule="evenodd" clip-rule="evenodd" fill="none" width="400" height="300"/>
<g>
	<defs>
		<path id="SVGID_1_" d="M32.75,23.062c-2.346-1.869-5.315-2.985-8.547-2.985c-7.578,0-13.722,6.144-13.722,13.722
			c0,1.184,0.149,2.332,0.431,3.428l2.112-0.486l0.444-0.068c-0.244-0.916-0.374-1.88-0.374-2.873
			c0-6.134,4.974-11.108,11.108-11.108c2.31,0,4.455,0.706,6.231,1.912L32.75,23.062z"/>
	</defs>
	<use xlink:href="#SVGID_1_"  overflow="visible" fill-rule="evenodd" clip-rule="evenodd" fill="#12202f"/>
	<clipPath id="SVGID_2_">
		<use xlink:href="#SVGID_1_"  overflow="visible"/>
	</clipPath>

		<rect x="3.947" y="13.543" clip-path="url(#SVGID_2_)" fill-rule="evenodd" clip-rule="evenodd" fill="#12202f" width="35.338" height="30.219"/>
</g>
<rect x="-151.185" y="-105.18" fill-rule="evenodd" clip-rule="evenodd" fill="none" width="400" height="300"/>
<g>
	<defs>
		<path id="SVGID_3_" d="M12.428,12.952c-0.625,0.361-0.841,1.156-0.478,1.786l1.96,3.396c0.36,0.625,1.156,0.841,1.784,0.478
			c0.625-0.36,0.843-1.155,0.48-1.784l-1.96-3.396C13.852,12.805,13.058,12.59,12.428,12.952z M3.331,22.05
			c-0.361,0.625-0.152,1.422,0.477,1.785l3.396,1.96c0.625,0.361,1.421,0.152,1.785-0.479c0.36-0.624,0.15-1.422-0.479-1.784
			l-3.396-1.961C4.489,21.212,3.693,21.421,3.331,22.05z M0,34.479c0,0.722,0.579,1.307,1.307,1.307h3.92
			c0.722,0,1.307-0.581,1.307-1.307c0-0.723-0.58-1.308-1.307-1.308h-3.92C0.584,33.172,0,33.752,0,34.479z M37.286,12.952
			c-0.625-0.36-1.422-0.151-1.787,0.479l-1.96,3.396c-0.36,0.624-0.151,1.422,0.48,1.784c0.624,0.361,1.422,0.152,1.784-0.478
			l1.96-3.396C38.124,14.112,37.914,13.316,37.286,12.952z M24.856,9.623c-0.721,0-1.307,0.579-1.307,1.307v3.921
			c0,0.722,0.581,1.307,1.307,1.307c0.721,0,1.307-0.58,1.307-1.307v-3.921C26.163,10.207,25.583,9.623,24.856,9.623z"/>
	</defs>
	<use xlink:href="#SVGID_3_"  overflow="visible" fill-rule="evenodd" clip-rule="evenodd" fill="#12202f"/>
	<clipPath id="SVGID_4_">
		<use xlink:href="#SVGID_3_"  overflow="visible"/>
	</clipPath>

		<rect x="-6.535" y="3.088" clip-path="url(#SVGID_4_)" fill-rule="evenodd" clip-rule="evenodd" fill="#12202f" width="51.008" height="39.232"/>
</g>
</svg>
