<?xml version="1.0" encoding="UTF-8" standalone="no"?>
<svg width="78px" height="64px" viewBox="0 0 78 64" version="1.1" xmlns="http://www.w3.org/2000/svg" xmlns:xlink="http://www.w3.org/1999/xlink" xmlns:sketch="http://www.bohemiancoding.com/sketch/ns">
    <!-- Generator: Sketch 3.1.1 (8761) - http://www.bohemiancoding.com/sketch -->
    <title>Drops_2</title>
    <desc>Created with Sketch.</desc>
    <defs></defs>
    <g id="Page-1" stroke="none" stroke-width="1" fill="none" fill-rule="evenodd" sketch:type="MSPage">
        <g id="Weather" sketch:type="MSArtboardGroup" transform="translate(-291.000000, -246.000000)" fill="#12202f">
            <g id="Rainy-+-Moderat-Regn" sketch:type="MSLayerGroup" transform="translate(265.000000, 246.000000)">
                <g id="Rainy" transform="translate(26.000000, 0.000000)" sketch:type="MSShapeGroup">
                    <path d="M26.5774687,59.7962575 C26.8010335,60.6306127 26.2609883,61.279935 25.5947886,61.4584427 C24.928589,61.6369503 24.1082894,61.240349 23.9126701,60.5102882 C23.717051,59.7802274 24.5203358,58.1020434 24.5203358,58.1020434 C24.5810487,57.9677018 24.733657,57.927226 24.8582018,58.0127114 C24.8582018,58.0127114 26.3539039,58.9619024 26.5774687,59.7962575 L26.5774687,59.7962575 Z M46.6773154,59.7962575 C46.9008802,60.6306127 46.3608349,61.279935 45.6946353,61.4584427 C45.0284357,61.6369503 44.208136,61.240349 44.0125168,60.5102882 C43.8168976,59.7802274 44.6201825,58.1020434 44.6201825,58.1020434 C44.6808954,57.9677018 44.8335037,57.927226 44.9580484,58.0127114 C44.9580484,58.0127114 46.4537506,58.9619024 46.6773154,59.7962575 L46.6773154,59.7962575 Z M57.7518283,60.4533232 C58.0995958,61.7512089 57.3441221,62.7385983 56.3924084,62.9936093 C55.4406946,63.2486202 54.2492697,62.6090171 53.9449732,61.473367 C53.6406767,60.3377169 54.7319852,57.7921853 54.7319852,57.7921853 C54.8203812,57.5723616 55.0427932,57.5033057 55.2458034,57.6557673 C55.2458034,57.6557673 57.4040608,59.1554375 57.7518283,60.4533232 L57.7518283,60.4533232 Z M36.8637523,60.4533232 C37.2115198,61.7512089 36.4560462,62.7385983 35.5043324,62.9936093 C34.5526186,63.2486202 33.3611938,62.6090171 33.0568972,61.473367 C32.7526007,60.3377169 33.8439092,57.7921853 33.8439092,57.7921853 C33.9323052,57.5723616 34.1547173,57.5033057 34.3577274,57.6557673 C34.3577274,57.6557673 36.5159848,59.1554375 36.8637523,60.4533232 L36.8637523,60.4533232 Z M30.5186151,53.5219718 C30.7421799,54.3563269 30.2021347,55.0056493 29.535935,55.184157 C28.8697354,55.3626646 28.0494358,54.9660632 27.8538166,54.2360025 C27.6581974,53.5059417 28.4614822,51.8277577 28.4614822,51.8277577 C28.5221951,51.6934161 28.6748034,51.6529403 28.7993482,51.7384257 C28.7993482,51.7384257 30.2950503,52.6876167 30.5186151,53.5219718 L30.5186151,53.5219718 Z M50.6184618,53.5219718 C50.8420266,54.3563269 50.3019813,55.0056493 49.6357817,55.184157 C48.9695821,55.3626646 48.1492824,54.9660632 47.9536632,54.2360025 C47.758044,53.5059417 48.5613289,51.8277577 48.5613289,51.8277577 C48.6220418,51.6934161 48.7746501,51.6529403 48.8991949,51.7384257 C48.8991949,51.7384257 50.394897,52.6876167 50.6184618,53.5219718 L50.6184618,53.5219718 Z M41.9872427,53.3947518 C42.3350101,54.6926375 41.5795365,55.6800269 40.6278227,55.9350378 C39.676109,56.1900488 38.4846841,55.5504456 38.1803876,54.4147956 C37.876091,53.2791455 38.9673996,50.7336138 38.9673996,50.7336138 C39.0557956,50.5137902 39.2782076,50.4447343 39.4812177,50.5971959 C39.4812177,50.5971959 41.6394752,52.0968661 41.9872427,53.3947518 L41.9872427,53.3947518 Z M20.7050521,53.3947518 C21.0528195,54.6926375 20.2973459,55.6800269 19.3456321,55.9350378 C18.3939184,56.1900488 17.2024935,55.5504456 16.898197,54.4147956 C16.5939004,53.2791455 17.685209,50.7336138 17.685209,50.7336138 C17.773605,50.5137902 17.996017,50.4447343 18.1990271,50.5971959 C18.1990271,50.5971959 20.3572846,52.0968661 20.7050521,53.3947518 L20.7050521,53.3947518 Z M62.8753186,53.3947518 C63.2230861,54.6926375 62.4676125,55.6800269 61.5158987,55.9350378 C60.5641849,56.1900488 59.3727601,55.5504456 59.0684635,54.4147956 C58.764167,53.2791455 59.8554755,50.7336138 59.8554755,50.7336138 C59.9438715,50.5137902 60.1662835,50.4447343 60.3692937,50.5971959 C60.3692937,50.5971959 62.5275511,52.0968661 62.8753186,53.3947518 L62.8753186,53.3947518 Z M66.713,18.938 C65.007,7.964 55.672,0 44.511,0 C35.948,0 28.245,4.744 24.409,12.38 L24.254,12.687 C23.671,12.596 23.075,12.549 22.468,12.549 C18.104,12.549 14.153,15.029 12.232,18.847 C5.419,19.255 0,24.911 0,31.803 C0,38.96 5.841,44.784 13.021,44.784 L64.978,44.784 C72.159,44.784 78,38.96 78,31.803 C78,25.232 73.076,19.785 66.713,18.938 L66.713,18.938 L66.713,18.938 Z M64.978,42.784 L13.021,42.784 C6.935,42.784 2,37.868 2,31.803 C2,25.739 6.935,20.824 13.021,20.824 C13.2,20.824 13.378,20.827 13.554,20.836 C14.848,17.174 18.35,14.549 22.468,14.549 C27.123,14.549 30.993,17.904 31.772,22.32 C31.866,21.835 31.915,21.335 31.915,20.824 C31.915,17.236 29.497,14.21 26.196,13.278 C29.555,6.591 36.495,2 44.511,2 C54.745,2 63.225,9.484 64.738,19.257 C58.763,19.384 53.958,24.25 53.958,30.235 L54.069,30.235 C54.833,24.913 59.426,20.824 64.978,20.824 C71.065,20.824 76,25.739 76,31.803 C76,37.868 71.065,42.784 64.978,42.784 L64.978,42.784 L64.978,42.784 Z" id="Drops_2"></path>
                </g>
            </g>
        </g>
    </g>
</svg>
