<?xml version="1.0" encoding="utf-8"?>
<!-- Generator: Adobe Illustrator 16.0.4, SVG Export Plug-In . SVG Version: 6.00 Build 0)  -->
<!DOCTYPE svg PUBLIC "-//W3C//DTD SVG 1.1//EN" "http://www.w3.org/Graphics/SVG/1.1/DTD/svg11.dtd">
<svg version="1.1" id="Layer_1" xmlns:sketch="http://www.bohemiancoding.com/sketch/ns"
	 xmlns="http://www.w3.org/2000/svg" xmlns:xlink="http://www.w3.org/1999/xlink" x="0px" y="0px" width="78px" height="64px"
	 viewBox="0 0 78 64" enable-background="new 0 0 78 64" xml:space="preserve">
<g>
	<defs>
		<path id="SVGID_1_" d="M38.921,35.428c1.894,0,3.427-1.535,3.427-3.428c0-1.892-1.533-3.427-3.427-3.427
			c-1.893,0-3.427,1.535-3.427,3.427C35.494,33.893,37.028,35.428,38.921,35.428z M35.186,36.322l-2.722,4.712
			c-0.135,0.016-0.27,0.056-0.398,0.125l-6.091,3.237c-0.547,0.293-0.741,0.996-0.453,1.535c0.297,0.559,0.971,0.779,1.526,0.484
			l3.334-1.773l-2.695,4.668c-0.313,0.544-0.109,1.249,0.421,1.555c0.547,0.316,1.237,0.143,1.558-0.413l2.706-4.686v3.755
			c0,0.619,0.53,1.121,1.143,1.121c0.63,0,1.143-0.491,1.143-1.121v-6.898c0-0.201-0.056-0.389-0.152-0.551l2.673-4.63
			c0.55,0.174,1.136,0.27,1.744,0.27c0.657,0,1.289-0.111,1.876-0.314l2.76,4.779c-0.054,0.125-0.087,0.264-0.092,0.408l-0.24,6.895
			c-0.021,0.618,0.49,1.138,1.102,1.16c0.632,0.021,1.158-0.452,1.181-1.082l0.134-3.772l2.695,4.667
			c0.312,0.545,1.026,0.721,1.558,0.413c0.544-0.314,0.74-1,0.419-1.555l-2.704-4.686l3.251,1.876
			c0.535,0.31,1.234,0.103,1.542-0.429c0.314-0.547,0.145-1.236-0.399-1.551l-5.973-3.447c-0.175-0.1-0.366-0.146-0.554-0.145
			l-2.714-4.701c0.88-0.801,1.511-1.875,1.759-3.086h5.571c0.082,0.109,0.186,0.205,0.308,0.283l5.849,3.654
			c0.526,0.328,1.231,0.146,1.557-0.374c0.335-0.536,0.188-1.229-0.343-1.562l-3.204-2.001h5.391c0.627,0,1.136-0.531,1.136-1.143
			c0-0.631-0.493-1.143-1.136-1.143h-5.413l3.253-1.876c0.535-0.311,0.705-1.02,0.397-1.551c-0.312-0.547-0.995-0.743-1.54-0.429
			l-5.975,3.447c-0.174,0.101-0.309,0.243-0.402,0.408h-5.448c-0.248-1.211-0.879-2.284-1.759-3.085l2.773-4.806
			c0.137-0.016,0.271-0.056,0.4-0.125l6.091-3.237c0.544-0.292,0.741-0.995,0.45-1.535c-0.294-0.558-0.968-0.779-1.525-0.484
			l-3.334,1.774l2.695-4.667c0.314-0.545,0.109-1.25-0.419-1.556c-0.55-0.316-1.236-0.143-1.558,0.413l-2.709,4.686v-3.755
			c0-0.618-0.528-1.12-1.143-1.12c-0.629,0-1.143,0.49-1.143,1.12v6.899c0,0.201,0.059,0.389,0.152,0.551l-2.697,4.674
			c-0.587-0.203-1.219-0.314-1.876-0.314c-0.608,0-1.193,0.096-1.744,0.27l-2.734-4.735c0.055-0.125,0.087-0.263,0.091-0.408
			l0.241-6.895c0.022-0.618-0.49-1.138-1.103-1.16c-0.63-0.021-1.159,0.453-1.181,1.08l-0.131,3.775l-2.695-4.668
			c-0.313-0.545-1.026-0.719-1.558-0.413c-0.546,0.314-0.742,1-0.421,1.556l2.706,4.686l-3.252-1.877
			c-0.536-0.31-1.235-0.103-1.542,0.429c-0.315,0.547-0.146,1.236,0.399,1.551l5.974,3.447c0.174,0.101,0.365,0.147,0.554,0.145
			l2.661,4.608c-0.937,0.81-1.606,1.918-1.863,3.179h-5.416c-0.082-0.109-0.184-0.205-0.308-0.283l-5.849-3.655
			c-0.525-0.328-1.232-0.145-1.556,0.375c-0.334,0.536-0.188,1.229,0.346,1.562l3.202,2.001h-5.39c-0.628,0-1.137,0.531-1.137,1.143
			c0,0.632,0.494,1.143,1.137,1.143h5.412l-3.252,1.877c-0.537,0.31-0.707,1.02-0.399,1.55c0.316,0.547,0.997,0.743,1.542,0.429
			l5.974-3.447c0.174-0.101,0.309-0.243,0.402-0.408h5.293C33.58,34.403,34.249,35.512,35.186,36.322z"/>
	</defs>
	<use xlink:href="#SVGID_1_"  overflow="visible" fill-rule="evenodd" clip-rule="evenodd" fill="#12202f"/>
	<clipPath id="SVGID_2_">
		<use xlink:href="#SVGID_1_"  overflow="visible"/>
	</clipPath>

		<rect x="5.792" y="1.553" clip-path="url(#SVGID_2_)" fill-rule="evenodd" clip-rule="evenodd" fill="#12202f" width="66.417" height="60.895"/>
</g>
</svg>
