<?xml version="1.0" encoding="utf-8"?>
<!-- Generator: Adobe Illustrator 16.0.4, SVG Export Plug-In . SVG Version: 6.00 Build 0)  -->
<!DOCTYPE svg PUBLIC "-//W3C//DTD SVG 1.1//EN" "http://www.w3.org/Graphics/SVG/1.1/DTD/svg11.dtd">
<svg version="1.1" id="Layer_1" xmlns:sketch="http://www.bohemiancoding.com/sketch/ns"
	 xmlns="http://www.w3.org/2000/svg" xmlns:xlink="http://www.w3.org/1999/xlink" x="0px" y="0px" width="78px" height="64px"
	 viewBox="0 0 78 64" enable-background="new 0 0 78 64" xml:space="preserve">
<title>Drops_2</title>
<desc>Created with Sketch.</desc>
<g id="Page-1" sketch:type="MSPage">
	<g id="Weather" transform="translate(-291.000000, -246.000000)" sketch:type="MSArtboardGroup">
		<g id="Rainy-_x2B_-Moderat-Regn" transform="translate(265.000000, 246.000000)" sketch:type="MSLayerGroup">
			<g id="Rainy" transform="translate(26.000000, 0.000000)" sketch:type="MSShapeGroup">
				<path id="Drops_2" fill="#12202f" d="M66.713,18.938C65.007,7.964,55.672,0,44.512,0c-8.564,0-16.267,4.744-20.103,12.38
					l-0.155,0.307c-0.583-0.091-1.179-0.138-1.786-0.138c-4.364,0-8.315,2.48-10.236,6.298C5.419,19.255,0,24.911,0,31.803
					c0,7.157,5.841,12.981,13.021,12.981h51.958C72.158,44.784,78,38.96,78,31.803C78,25.232,73.076,19.785,66.713,18.938
					L66.713,18.938L66.713,18.938z M64.979,42.784H13.021C6.935,42.784,2,37.868,2,31.803c0-6.063,4.935-10.979,11.021-10.979
					c0.179,0,0.357,0.003,0.533,0.012c1.294-3.662,4.796-6.287,8.914-6.287c4.655,0,8.525,3.355,9.304,7.771
					c0.094-0.485,0.143-0.985,0.143-1.496c0-3.588-2.418-6.614-5.719-7.546C29.555,6.591,36.495,2,44.512,2
					c10.233,0,18.713,7.484,20.227,17.257c-5.975,0.127-10.78,4.993-10.78,10.978h0.11c0.765-5.322,5.357-9.411,10.91-9.411
					C71.064,20.824,76,25.739,76,31.803C76,37.868,71.064,42.784,64.979,42.784L64.979,42.784L64.979,42.784z"/>
			</g>
		</g>
	</g>
</g>
<path fill-rule="evenodd" clip-rule="evenodd" fill="#12202f" d="M20.603,51.45c0.386,1.44-0.449,2.535-1.501,2.817
	c-1.053,0.283-2.371-0.428-2.709-1.689c-0.337-1.261,0.772-3.835,0.772-3.835c0.149-0.383,0.53-0.501,0.871-0.238
	C18.036,48.505,20.217,50.01,20.603,51.45z M53.686,51.592c0.248,0.925-0.35,1.646-1.085,1.843
	c-0.738,0.197-1.646-0.245-1.864-1.054c-0.216-0.812,0.603-2.514,0.603-2.514c0.104-0.236,0.367-0.31,0.602-0.145
	C51.94,49.723,53.437,50.665,53.686,51.592z M61.575,59.286c0.384,1.44-0.449,2.535-1.503,2.817
	c-1.051,0.282-2.371-0.429-2.707-1.69c-0.339-1.26,0.771-3.834,0.771-3.834c0.15-0.383,0.531-0.502,0.871-0.238
	C59.008,56.341,61.188,57.846,61.575,59.286z M27.097,58.557c0.249,0.925-0.348,1.646-1.084,1.843
	c-0.737,0.197-1.645-0.245-1.862-1.054c-0.218-0.812,0.601-2.514,0.601-2.514c0.105-0.236,0.368-0.31,0.602-0.145
	C25.353,56.688,26.849,57.63,27.097,58.557z"/>
<polygon fill-rule="evenodd" clip-rule="evenodd" fill="#12202f" points="36.951,58.851 39.945,55.857 44.17,63.452 41.082,52.505 
	38.088,55.497 33.862,47.903 "/>
</svg>
