<?xml version="1.0" standalone="no"?><!DOCTYPE svg PUBLIC "-//W3C//DTD SVG 1.1//EN" "http://www.w3.org/Graphics/SVG/1.1/DTD/svg11.dtd"><svg width="100%" height="100%" viewBox="0 0 129 60" version="1.1" xmlns="http://www.w3.org/2000/svg" xmlns:xlink="http://www.w3.org/1999/xlink" xml:space="preserve" style="fill-rule:evenodd;clip-rule:evenodd;stroke-linejoin:round;stroke-miterlimit:1.41421;"><g id="Layer1"><path d="M83.174,54.293l-65.477,0.021l-5.703,-8.516l71.207,-0.093l-0.027,8.588Z" style="fill:#fff;fill-rule:nonzero;"/><path d="M0.437,28.624l5.621,8.538l58.624,-0.006l0.023,-8.549l-64.268,0.017Z" style="fill:#fff;fill-rule:nonzero;"/><path d="M19.549,57.156l1.77,2.842l20.399,0l41.425,-0.037l-0.01,-2.821l-63.584,0.016Z" style="fill:#fff;fill-rule:nonzero;"/><path d="M64.649,42.805l-54.715,0.077l-1.779,-2.82l56.487,-0.081l0.007,2.824Z" style="fill:#fff;fill-rule:nonzero;"/><path d="M32.454,0.45l0.008,22.826l-5.281,0.132l-0.009,-4.315l-7.057,-0.065c-1.274,2.185 -2.063,3.638 -2.369,4.361l-5.685,-0.149l12.772,-22.774l7.621,-0.016ZM22.669,14.323l4.556,-0.05l-0.017,-8.067l-4.539,8.117Z" style="fill:#fff;fill-rule:nonzero;"/><path d="M78.38,35.411l-5.516,0.001l0.007,7.344l-4.877,0.01l0,-19.398l4.904,-0.007l0.029,7.376l5.443,-0.011l0.025,-7.34l4.878,-0.01l-0.079,19.398l-4.798,0.01l-0.016,-7.373Z" style="fill:#fff;fill-rule:nonzero;"/><path d="M113.161,28.177l-4.516,14.577l-4.806,0.003l-4.708,-14.55l4.676,-0.009l2.333,6.972l2.385,-6.983l4.636,-0.01Z" style="fill:#fff;fill-rule:nonzero;"/><path d="M48.854,21.7l0.08,-19.601l4.636,-0.01l0.01,4.921l3.609,0.152c2.945,0.027 4.606,1.907 5.162,4.272c0.236,0.999 0.192,5.674 -0.18,6.754c-1.082,3.134 -4.492,3.493 -4.649,3.493l-8.668,0.019ZM53.579,17.658l2.903,0.034c0.184,-0.001 1.003,-0.344 1.006,-0.89l0.03,-5.041c0.002,-0.423 -0.375,-0.927 -0.849,-0.925l-2.943,0.006c-0.108,0 -0.161,0.094 -0.161,0.283l0.014,6.533Z" style="fill:#fff;fill-rule:nonzero;"/><path d="M75.924,17.985l-0.033,3.671c-7.233,0.667 -10.581,-0.474 -12.026,-5.018c-1.453,-4.548 1.434,-9.188 4.22,-9.977c1.314,-0.374 2.649,-0.458 4.005,-0.254c3.704,0.559 5.342,3.57 4.917,9.035l-8.104,0.018c-0.245,0 -0.32,0.274 -0.222,0.819c0.227,1.271 1.179,1.719 1.719,1.718l5.524,-0.012ZM70.648,9.856c-1.734,0.234 -2.008,2.303 -1.729,2.303l3.75,-0.009c0.231,0 0.307,-0.412 -0.076,-1.222c-0.39,-0.828 -1.14,-1.18 -1.945,-1.072" style="fill:#fff;fill-rule:nonzero;"/><path d="M119.365,42.675l-4.838,0.01l0.01,-14.518l9.959,-0.021c1.861,-0.005 3.598,1.598 3.595,3.258l-0.017,11.253l-4.636,0.01l0.019,-10.002c0.001,-0.363 -0.533,-0.725 -0.929,-0.724l-3.169,0.002l0.006,10.732Z" style="fill:#fff;fill-rule:nonzero;"/><path d="M87.308,21.661l-0.022,-10.203c-0.001,-0.418 -0.447,-0.565 -0.808,-0.564l-3.064,0.006c-0.107,0.001 -0.161,0.096 -0.16,0.283l-0.018,10.486l-4.798,0.01l-0.032,-14.518l9.838,-0.021c1.532,-0.003 3.76,1.194 3.758,3.379l-0.019,11.131l-4.675,0.011Z" style="fill:#fff;fill-rule:nonzero;"/><path d="M46.93,21.712l-6.813,0.016c-1.932,0.003 -3.448,-0.447 -4.548,-1.352c-2.453,-2.014 -3.323,-7.988 4.478,-8.005c1.242,-0.002 1.863,-0.018 1.863,-0.044l-0.002,-0.928c-0.001,-0.547 -0.77,-0.845 -0.969,-0.845l-4.919,0.011l-0.008,-3.75l7.258,-0.016c1.381,-0.003 3.73,1.157 3.717,3.501l-0.057,11.412ZM41.954,15.296l-1.862,0.016c-2.232,0.02 -2.241,2.441 -0.645,2.87c0.2,0.055 2.473,0.042 2.474,-0.008l0.033,-2.878Z" style="fill:#fff;fill-rule:nonzero;"/><path d="M98.045,42.738l-7.661,0.017c-1.54,0.004 -4.516,-0.843 -5.24,-3.768c-0.69,-2.782 0.501,-4.537 3.575,-5.264c0.685,-0.161 2.094,-0.245 4.225,-0.249c0.265,-0.182 0.168,-1.815 -0.85,-1.813l-4.959,0.01l-0.009,-3.791l6.895,-0.014c2.362,-0.005 4.042,1.535 4.039,3.459l-0.015,11.413ZM93.008,36.362l-1.839,0.015c-1.994,0.018 -2.281,2.011 -1.009,2.732c0.256,0.145 0.945,0.216 2.07,0.214c0.523,-0.002 0.784,-0.043 0.784,-0.123l-0.006,-2.838Z" style="fill:#fff;fill-rule:nonzero;"/><path d="M117.543,10.505l-0.008,-3.751l7.137,-0.015c1.471,-0.003 3.76,1.171 3.758,3.501l0.007,11.393l-7.322,0.035c-2.994,0.007 -5.414,-1.66 -5.695,-4.504c-0.233,-2.364 0.951,-3.879 3.548,-4.547c0.785,-0.202 2.036,-0.305 3.755,-0.308c0.21,0 0.42,-0.001 0.631,-0.001c0.192,-0.123 0.165,-1.816 -0.972,-1.813l-4.839,0.01ZM121.159,15.275c-1.018,0.178 -1.475,0.717 -1.367,1.616c0.102,0.861 0.819,1.29 2.151,1.286c0.96,-0.001 1.439,-0.016 1.44,-0.043l-0.014,-2.887l-2.21,0.028Z" style="fill:#fff;fill-rule:nonzero;"/><path d="M103.411,6.755l7.258,-0.017c1.362,-0.001 3.639,1.131 3.636,3.421l-0.016,11.453l-7.418,0.016c-0.86,0.003 -5.143,-0.481 -5.574,-4.424c-0.355,-3.253 1.858,-4.884 6.637,-4.894l1.215,-0.003c0.315,0 0.393,-1.805 -0.811,-1.813l-4.919,-0.029l-0.008,-3.71ZM109.312,15.257l-1.817,0.015c-1.833,0.015 -2.054,1.447 -1.495,2.253c0.299,0.431 0.915,0.648 1.847,0.653c0.922,0.004 1.403,-0.015 1.445,-0.057l0.02,-2.864Z" style="fill:#fff;fill-rule:nonzero;"/><path d="M98.599,21.612l-4.797,-0.017l0.09,-14.398l4.718,-0.01l0.003,1.815c0.567,-0.996 1.062,-1.628 1.487,-1.899c0.772,-0.49 1.855,-0.404 1.936,-0.287l0.009,4.235l-1.815,0.004c-1.106,0.002 -1.608,0.982 -1.609,1.294l-0.022,9.263Z" style="fill:#fff;fill-rule:nonzero;"/></g></svg>